<?xml version="1.0" encoding="UTF-8" standalone="no"?>
<svg
   xmlns:dc="http://purl.org/dc/elements/1.1/"
   xmlns:cc="http://creativecommons.org/ns#"
   xmlns:rdf="http://www.w3.org/1999/02/22-rdf-syntax-ns#"
   xmlns:svg="http://www.w3.org/2000/svg"
   xmlns="http://www.w3.org/2000/svg"
   xmlns:sodipodi="http://sodipodi.sourceforge.net/DTD/sodipodi-0.dtd"
   xmlns:inkscape="http://www.inkscape.org/namespaces/inkscape"
   enable-background="new 0 0 24 24"
   id="Layer_1"
   version="1.0"
   viewBox="0 0 24 24"
   xml:space="preserve"
   inkscape:version="0.91 r13725"
   sodipodi:docname="passenger.svg"><metadata
     id="metadata19"><rdf:RDF><cc:Work
         rdf:about=""><dc:format>image/svg+xml</dc:format><dc:type
           rdf:resource="http://purl.org/dc/dcmitype/StillImage" /><dc:title></dc:title></cc:Work></rdf:RDF></metadata><defs
     id="defs17" /><sodipodi:namedview
     pagecolor="#ffffff"
     bordercolor="#666666"
     borderopacity="1"
     objecttolerance="10"
     gridtolerance="10"
     guidetolerance="10"
     inkscape:pageopacity="0"
     inkscape:pageshadow="2"
     inkscape:window-width="1920"
     inkscape:window-height="1016"
     id="namedview15"
     showgrid="false"
     inkscape:zoom="13.906433"
     inkscape:cx="-3.5322476"
     inkscape:cy="16.946082"
     inkscape:window-x="0"
     inkscape:window-y="27"
     inkscape:window-maximized="1"
     inkscape:current-layer="Layer_1" /><g
     id="g7"
     transform="matrix(1.1689865,0,0,1.1689865,-2.0278384,-2.0278384)"><circle
       cx="12"
       cy="9.1999998"
       r="1.6"
       id="circle9" /></g><path
     d="M 3.8170942,7.7916485 5.4536754,10.012723 C 6.1550673,10.947912 7.0902565,11.649304 8.2592431,12 l 1.0520879,0.350696 5.494237,0 L 15.857656,12 c 1.052087,-0.350696 2.104175,-1.052088 2.805567,-1.987277 l 1.519683,-2.2210745"
     stroke-miterlimit="10"
     id="path11"
     inkscape:connector-curvature="0"
     style="fill:none;stroke:#000000;stroke-width:1.81847548;stroke-miterlimit:10" /><path
     d="m 15.623858,20.182906 -0.467594,-2.221075 c -0.233798,-1.285885 -0.233798,-2.57177 0.116898,-3.857655 l 0.467595,-1.75348 -3.740757,0 -3.6238583,0 0.4675947,1.75348 c 0.3506959,1.285885 0.3506959,2.57177 0.1168986,3.857655 l -0.5844933,2.221075 1.8703783,0.350696 1.870379,-2.337973 1.870378,2.337973 1.636581,-0.350696 z"
     id="path13"
     inkscape:connector-curvature="0" /></svg>