<?xml version="1.0" encoding="utf-8" ?>
<svg baseProfile="full" height="100%" version="1.1" width="100%" xmlns="http://www.w3.org/2000/svg" xmlns:ev="http://www.w3.org/2001/xml-events" xmlns:xlink="http://www.w3.org/1999/xlink"><defs><style type="text/css"><![CDATA[
    .background { fill: lavenderblush; }
    .line { stroke: firebrick; stroke-width: .1mm; }
    .blacksquare { fill: #06ccb1; }
    .whitesquare { fill: #047a6a; }
    .walls { fill: #0f0f0f;}
]]></style></defs><rect class="background" height="80" width="80" x="0" y="0" /><g class="line"><line x1="0" x2="80" y1="0" y2="0" /><line x1="0" x2="0" y1="0" y2="80" /><line x1="0" x2="80" y1="10" y2="10" /><line x1="10" x2="10" y1="0" y2="80" /><line x1="0" x2="80" y1="20" y2="20" /><line x1="20" x2="20" y1="0" y2="80" /><line x1="0" x2="80" y1="30" y2="30" /><line x1="30" x2="30" y1="0" y2="80" /><line x1="0" x2="80" y1="40" y2="40" /><line x1="40" x2="40" y1="0" y2="80" /><line x1="0" x2="80" y1="50" y2="50" /><line x1="50" x2="50" y1="0" y2="80" /><line x1="0" x2="80" y1="60" y2="60" /><line x1="60" x2="60" y1="0" y2="80" /><line x1="0" x2="80" y1="70" y2="70" /><line x1="70" x2="70" y1="0" y2="80" /><line x1="0" x2="80" y1="80" y2="80" /><line x1="80" x2="80" y1="0" y2="80" /></g><g class="whitesquare"><rect height="8" width="8" x="1" y="11" /><rect height="8" width="8" x="1" y="31" /><rect height="8" width="8" x="1" y="51" /><rect height="8" width="8" x="1" y="71" /><rect height="8" width="8" x="11" y="1" /><rect height="8" width="8" x="11" y="21" /><rect height="8" width="8" x="11" y="41" /><rect height="8" width="8" x="11" y="61" /><rect height="8" width="8" x="21" y="11" /><rect height="8" width="8" x="21" y="31" /><rect height="8" width="8" x="21" y="51" /><rect height="8" width="8" x="21" y="71" /><rect height="8" width="8" x="31" y="1" /><rect height="8" width="8" x="31" y="21" /><rect height="8" width="8" x="31" y="41" /><rect height="8" width="8" x="31" y="61" /><rect height="8" width="8" x="41" y="11" /><rect height="8" width="8" x="41" y="31" /><rect height="8" width="8" x="41" y="51" /><rect height="8" width="8" x="41" y="71" /><rect height="8" width="8" x="51" y="1" /><rect height="8" width="8" x="51" y="21" /><rect height="8" width="8" x="51" y="41" /><rect height="8" width="8" x="51" y="61" /><rect height="8" width="8" x="61" y="11" /><rect height="8" width="8" x="61" y="31" /><rect height="8" width="8" x="61" y="51" /><rect height="8" width="8" x="61" y="71" /><rect height="8" width="8" x="71" y="1" /><rect height="8" width="8" x="71" y="21" /><rect height="8" width="8" x="71" y="41" /><rect height="8" width="8" x="71" y="61" /></g><g class="blacksquare"><rect height="8" width="8" x="1" y="1" /><rect height="8" width="8" x="1" y="21" /><rect height="8" width="8" x="1" y="41" /><rect height="8" width="8" x="1" y="61" /><rect height="8" width="8" x="11" y="11" /><rect height="8" width="8" x="11" y="31" /><rect height="8" width="8" x="11" y="51" /><rect height="8" width="8" x="11" y="71" /><rect height="8" width="8" x="21" y="1" /><rect height="8" width="8" x="21" y="21" /><rect height="8" width="8" x="21" y="41" /><rect height="8" width="8" x="21" y="61" /><rect height="8" width="8" x="31" y="11" /><rect height="8" width="8" x="31" y="31" /><rect height="8" width="8" x="31" y="51" /><rect height="8" width="8" x="31" y="71" /><rect height="8" width="8" x="41" y="1" /><rect height="8" width="8" x="41" y="21" /><rect height="8" width="8" x="41" y="41" /><rect height="8" width="8" x="41" y="61" /><rect height="8" width="8" x="51" y="11" /><rect height="8" width="8" x="51" y="31" /><rect height="8" width="8" x="51" y="51" /><rect height="8" width="8" x="51" y="71" /><rect height="8" width="8" x="61" y="1" /><rect height="8" width="8" x="61" y="21" /><rect height="8" width="8" x="61" y="41" /><rect height="8" width="8" x="61" y="61" /><rect height="8" width="8" x="71" y="11" /><rect height="8" width="8" x="71" y="31" /><rect height="8" width="8" x="71" y="51" /><rect height="8" width="8" x="71" y="71" /></g><g class="walls"><rect height="-10" width="2" x="19" y="40" /><rect height="-80" width="2" x="79" y="0" /><rect height="-10" width="2" x="19" y="70" /><rect height="-30" width="2" x="49" y="50" /><rect height="-20" width="2" x="69" y="20" /><rect height="-20" width="2" x="29" y="50" /><rect height="-10" width="2" x="69" y="0" /><rect height="-10" width="2" x="19" y="20" /><rect height="-80" width="2" x="-1" y="0" /><rect height="-10" width="2" x="49" y="30" /><rect height="-10" width="2" x="69" y="50" /><rect height="2" width="-30" x="20" y="29" /><rect height="2" width="-20" x="50" y="39" /><rect height="2" width="-80" x="0" y="-1" /><rect height="2" width="-50" x="20" y="19" /><rect height="2" width="-80" x="0" y="79" /><rect height="2" width="-10" x="70" y="49" /><rect height="2" width="-10" x="20" y="69" /><rect height="2" width="-20" x="0" y="49" /><rect height="2" width="-20" x="30" y="49" /><rect height="2" width="-20" x="0" y="39" /><rect height="2" width="-10" x="70" y="9" /><rect height="2" width="-10" x="70" y="59" /></g><g class="objs"><image height="9" width="9" x="10" xlink:href="taxi.svg" y="70" /><image height="9" width="9" x="10" xlink:href="passenger.svg" y="30" /><image height="9" width="9" x="70" xlink:href="pickup.svg" y="70" /><image height="9" width="9" x="10" xlink:href="pickup.svg" y="30" /><image height="9" width="9" x="0" xlink:href="pickup.svg" y="0" /><image height="9" width="9" x="60" xlink:href="drop.svg" y="10" /></g></svg>