<?xml version="1.0" encoding="UTF-8" standalone="no"?>
<svg
   xmlns:dc="http://purl.org/dc/elements/1.1/"
   xmlns:cc="http://creativecommons.org/ns#"
   xmlns:rdf="http://www.w3.org/1999/02/22-rdf-syntax-ns#"
   xmlns:svg="http://www.w3.org/2000/svg"
   xmlns="http://www.w3.org/2000/svg"
   xmlns:sodipodi="http://sodipodi.sourceforge.net/DTD/sodipodi-0.dtd"
   xmlns:inkscape="http://www.inkscape.org/namespaces/inkscape"
   width="128"
   height="128"
   style="enable-background:new 0 0 128 128;"
   id="svg2"
   version="1.1"
   inkscape:version="0.91 r13725"
   sodipodi:docname="taxiPassenger.svg"
   inkscape:export-filename="/home/chronius/disciplinas/2018.1/tcc/workspace/visualizer/taxiPassenger.svg"
   inkscape:export-xdpi="83.775482"
   inkscape:export-ydpi="83.775482">
  <metadata
     id="metadata44">
    <rdf:RDF>
      <cc:Work
         rdf:about="">
        <dc:format>image/svg+xml</dc:format>
        <dc:type
           rdf:resource="http://purl.org/dc/dcmitype/StillImage" />
      </cc:Work>
    </rdf:RDF>
  </metadata>
  <defs
     id="defs42" />
  <sodipodi:namedview
     pagecolor="#ffffff"
     bordercolor="#666666"
     borderopacity="1"
     objecttolerance="10"
     gridtolerance="10"
     guidetolerance="10"
     inkscape:pageopacity="0"
     inkscape:pageshadow="2"
     inkscape:window-width="1920"
     inkscape:window-height="1016"
     id="namedview40"
     showgrid="false"
     inkscape:zoom="2.6074563"
     inkscape:cx="-42.127636"
     inkscape:cy="144.71575"
     inkscape:window-x="0"
     inkscape:window-y="27"
     inkscape:window-maximized="1"
     inkscape:current-layer="svg2" />
  <g
     id="g6">
    <path
       inkscape:connector-curvature="0"
       id="path8"
       style="fill:#2f2f2f"
       d="m 80.67,35.35 c 0,2.19 -1.8,3.99 -3.99,3.99 l -25.35,0 c -2.2,0 -3.99,-1.8 -3.99,-3.99 l 0,-10.79 c 0,-2.2 1.8,-3.99 3.99,-3.99 l 25.34,0 c 2.19,0 3.99,1.79 3.99,3.99 l 0,10.79 z" />
    <g
       id="g10">
      <path
         inkscape:connector-curvature="0"
         id="path12"
         style="fill:#ffffff"
         d="m 62.41,25.36 -1.68,0 c -0.07,0 -0.13,0.04 -0.14,0.1 l -2.72,7.2 c -0.02,0.05 -0.01,0.11 0.02,0.15 0.02,0.04 0.08,0.06 0.13,0.06 l 1.77,0 c 0.07,0 0.13,-0.04 0.16,-0.11 l 0.41,-1.24 2.42,0 0.41,1.24 c 0.02,0.06 0.08,0.11 0.15,0.11 l 1.78,0 c 0.05,0 0.1,-0.02 0.13,-0.06 0.03,-0.04 0.04,-0.1 0.03,-0.15 l -2.71,-7.2 c -0.04,-0.06 -0.09,-0.1 -0.16,-0.1 z m -1.55,4.65 0.7,-2.12 0.71,2.12 -1.41,0 z" />
      <path
         inkscape:connector-curvature="0"
         id="path14"
         style="fill:#ffffff"
         d="m 76.32,25.36 -1.78,0 c -0.09,0 -0.16,0.08 -0.16,0.17 l 0,7.19 c 0,0.1 0.07,0.17 0.16,0.17 l 1.78,0 c 0.09,0 0.16,-0.07 0.16,-0.17 l 0,-7.19 c 0,-0.09 -0.07,-0.17 -0.16,-0.17 z" />
      <path
         inkscape:connector-curvature="0"
         id="path16"
         style="fill:#ffffff"
         d="m 71.06,29.15 2.38,-3.54 c 0.03,-0.05 0.03,-0.11 0.01,-0.17 -0.03,-0.05 -0.08,-0.09 -0.14,-0.09 l -2.01,0 c -0.05,0 -0.1,0.03 -0.13,0.07 l -1.34,1.94 -1.32,-1.94 c -0.04,-0.04 -0.08,-0.07 -0.13,-0.07 l -2.01,0 c -0.06,0 -0.11,0.03 -0.14,0.09 -0.03,0.05 -0.03,0.12 0,0.17 l 2.38,3.54 -2.39,3.48 c -0.04,0.05 -0.04,0.11 -0.01,0.16 0.03,0.06 0.08,0.09 0.14,0.09 l 2.11,0 c 0.04,0 0.1,-0.02 0.12,-0.07 l 1.24,-1.84 1.25,1.84 c 0.03,0.05 0.07,0.07 0.13,0.07 l 2.11,0 c 0.07,0 0.12,-0.03 0.14,-0.09 0.03,-0.05 0.03,-0.12 0,-0.16 l -2.39,-3.48 z" />
      <path
         inkscape:connector-curvature="0"
         id="path18"
         style="fill:#ffffff"
         d="m 58.73,26.75 0,-1.3 c 0,-0.09 -0.07,-0.17 -0.16,-0.17 l -6.89,0 c -0.09,0 -0.16,0.08 -0.16,0.17 l 0,1.3 c 0,0.09 0.07,0.17 0.16,0.17 l 2.49,0 0,5.81 c 0,0.1 0.08,0.17 0.17,0.17 l 1.57,0 c 0.09,0 0.16,-0.07 0.16,-0.17 l 0,-5.81 2.5,0 c 0.08,-0.01 0.16,-0.09 0.16,-0.17 z" />
    </g>
  </g>
  <g
     id="g22">
    <path
       d="m 93.35,120.07 c 0,4.38 3.53,7.93 7.91,7.93 l 0,0 c 4.38,0 7.91,-3.56 7.91,-7.93 l 0,-32.08 c 0,-4.36 -3.53,-7.91 -7.91,-7.91 l 0,0 c -4.38,0 -7.91,3.55 -7.91,7.91 l 0,32.08 z"
       style="fill:#2f2f2f"
       id="path24"
       inkscape:connector-curvature="0" />
    <path
       d="m 19.37,120.07 c 0,4.38 3.54,7.93 7.91,7.93 l 0,0 c 4.38,0 7.91,-3.56 7.91,-7.93 l 0,-32.08 c 0,-4.36 -3.54,-7.91 -7.91,-7.91 l 0,0 c -4.37,0 -7.91,3.55 -7.91,7.91 l 0,32.08 z"
       style="fill:#2f2f2f"
       id="path26"
       inkscape:connector-curvature="0" />
  </g>
  <g
     id="g3431">
    <path
       inkscape:connector-curvature="0"
       id="path28"
       style="fill:#fcc21b"
       d="m 106.23,72.54 -84.47,0 c -6.58,0 -11.97,4.2 -11.97,9.33 l 0,25.05 c 0,2.2 1.8,3.99 4,3.99 l 100.42,0 c 2.19,0 3.99,-1.8 3.99,-3.99 l 0,-25.05 c 0.01,-5.13 -5.38,-9.33 -11.97,-9.33 z" />
    <g
       id="g30">
      <circle
         r="7.5900002"
         id="ellipse32"
         style="fill:#ffffff"
         cy="90.43"
         cx="27.67" />
      <path
         inkscape:connector-curvature="0"
         id="path34"
         style="fill:#ffffff"
         d="m 93.75,90.43 c 0,4.19 3.4,7.59 7.6,7.59 4.18,0 7.59,-3.4 7.59,-7.59 0,-4.19 -3.4,-7.59 -7.59,-7.59 -4.2,0 -7.6,3.4 -7.6,7.59 z" />
    </g>
  </g>
  <path
     d="m 108.01,68.29 c 0,-0.01 0,-0.02 0,-0.03 l -6.53,-24.12 c -1.17,-4.31 -5.79,-7.85 -10.26,-7.85 l -54.43,0 c -4.48,0 -9.1,3.54 -10.27,7.85 l -6.53,24.12 c -0.01,0.01 -0.01,0.03 -0.01,0.04 l -2.12,7.81 8.14,0 76,0 8.14,0 -2.13,-7.82 z"
     style="fill:#fcc21b"
     id="path36"
     inkscape:connector-curvature="0" />
  <path
     d="M 93.75,47.48 C 93.28,45.29 91.07,43.5 88.83,43.5 l -49.67,0 c -2.24,0 -4.45,1.79 -4.92,3.98 L 29.83,68.2 c -0.47,2.19 0.99,3.98 3.22,3.98 l 61.9,0 c 2.24,0 3.69,-1.79 3.22,-3.98 L 93.75,47.48 Z"
     style="fill:#40c0e7"
     id="path38"
     inkscape:connector-curvature="0" />
  <g
     id="g3377"
     transform="matrix(3.5910644,0,0,5.658844,20.616307,0.86397339)">
    <circle
       cx="12"
       cy="9.1999998"
       r="1.6"
       id="circle3379" />
  </g>
  <path
     style="fill:none;stroke:#000000;stroke-width:6.78424597;stroke-miterlimit:10"
     inkscape:connector-curvature="0"
     d="m 38.480964,48.396593 5.045608,10.027099 c 2.162405,4.221937 5.045611,7.388388 8.649616,8.971615 l 3.243607,1.583226 16.938829,0 3.243605,-1.583226 c 3.243606,-1.583227 6.487213,-4.749678 8.649616,-8.971615 l 4.685209,-10.027099"
     stroke-miterlimit="10"
     id="path3381" />
</svg>
